<svg id="mixed_gradient" viewBox="0 0 100 100" xmlns="http://www.w3.org/2000/svg" xmlns:xlink="http://www.w3.org/1999/xlink" data-name="mixed gradient"><linearGradient id="linear-gradient" gradientUnits="userSpaceOnUse" x1="18.206" x2="81.794" y1="81.803" y2="18.214"><stop offset="0" stop-color="#27f19d"/><stop offset="1" stop-color="#02a2f8"/></linearGradient><path d="m50 5.05c-38.716 0-59.292 46.032-33.629 74.808a45.028 45.028 0 0 0 67.258 0c25.662-28.775 5.09-74.808-33.629-74.808zm4.91 56.95-4.91 2.454-4.91-2.454v-6.408a18.651 18.651 0 0 0 9.82 0zm.944-9.864a15.917 15.917 0 0 1 -21.774-14.786v-2.43a15.92 15.92 0 0 1 31.84 0v2.43a15.886 15.886 0 0 1 -10.061 14.784zm27.84 22.9a17.768 17.768 0 0 0 -17.434-14.466h-8.13c-.316 0-.22.8-.22-6.076a18.788 18.788 0 0 0 11.01-17.144v-2.43a18.92 18.92 0 0 0 -37.84 0v2.43a18.78 18.78 0 0 0 11.01 17.158v6.092c-.255-.038.632-.025-8.35-.025a17.768 17.768 0 0 0 -17.434 14.459c-20.455-27.401-.922-66.984 33.694-66.984s54.155 39.573 33.694 66.985z" fill="url(#linear-gradient)"/></svg>